# xmcd CD database file
#
# Track frame offsets:
#	150
#	20467
#	40710
#	57639
#	75509
#	94574
#	115419
#	130059
#	147686
#	164834
#	183090
#	200278
#	213363
#	232663
#	253555
#
# Disc length: 3588 seconds
#
# Revision: 1
# Processed by: cddbd v1.5.2PL0 Copyright (c) Steve Scherf et al.
# Submitted via: CDex 1.51
#
DISCID=c90e020f
DTITLE=Various Artist - Merenhits 2007
DYEAR=2006
DGENRE=Merengue
TTITLE0=Eddy Herrera (feat. Vladimir Dotel) - Amor De Locos
TTITLE1=Kinito Méndez (feat. Robertico) - Delincuente
TTITLE2=Millie Quezada - Muerto El Perro
TTITLE3=Mala Fe - Pluma, Pluma Gay aka "Dragostea Din Tei"
TTITLE4=Julián - El Chinito
TTITLE5=Ramón Orlando and Mirian Cruz - Mi Gran Amor
TTITLE6=Guary and Cleyton - Plata Y Billete
TTITLE7=Papi Sánchez (feat. Martha Infante) - Sigo Con Mi Calor
TTITLE8=La Mákina - Mueve La Colita
TTITLE9=Geovanny Polanco - Lindo Amanecer
TTITLE10=El Prodigio - El Merengue No Se Vá
TTITLE11=Los Viejebos - La Botella
TTITLE12=Alex Bueno - Y El Amor A Veces
TTITLE13=Jeffrey - Ni El Odio, Ni La Mentira
TTITLE14=KID G (feat. La Verdad) - Lets Get Crunk
EXTD=YEAR: 2006
EXTT0=
EXTT1=
EXTT2=
EXTT3=
EXTT4=
EXTT5=
EXTT6=
EXTT7=
EXTT8=
EXTT9=
EXTT10=
EXTT11=
EXTT12=
EXTT13=
EXTT14=
PLAYORDER=
